SplineFontDB: 3.2
FontName: NotoSansTagalog-Regular
FullName: Noto Sans Tagalog Regular
FamilyName: Noto Sans Tagalog
Weight: Book
Copyright: Copyright (c) 2020, The Noto Sans Tagalog Project Authors\n\nThis Font Software is licensed under the SIL Open Font License, Version 1.1.
Version: 3.0
ItalicAngle: 0
UnderlinePosition: -250
UnderlineWidth: 100
Ascent: 1600
Descent: 400
InvalidEm: 0
UFOAscent: 1600
UFODescent: -400
LayerCount: 2
Layer: 0 0 "Back" 1
Layer: 1 0 "public.default" 0 "glyphs"
StyleMap: 0x0040
FSType: 0
OS2Version: 0
OS2_WeightWidthSlopeOnly: 0
OS2_UseTypoMetrics: 0
CreationTime: 1596957163
ModificationTime: 1596975864
PfmFamily: 33
TTFWeight: 400
TTFWidth: 5
LineGap: 0
VLineGap: 0
Panose: 2 11 5 2 4 5 4 2 2 4
OS2TypoAscent: 2138
OS2TypoAOffset: 0
OS2TypoDescent: -586
OS2TypoDOffset: 0
OS2TypoLinegap: 0
OS2WinAscent: 2138
OS2WinAOffset: 0
OS2WinDescent: 586
OS2WinDOffset: 0
HheadAscent: 2138
HheadAOffset: 0
HheadDescent: -586
HheadDOffset: 0
OS2SubXSize: 1300
OS2SubYSize: 1200
OS2SubXOff: 0
OS2SubYOff: 150
OS2SupXSize: 1300
OS2SupYSize: 1200
OS2SupXOff: 0
OS2SupYOff: 700
OS2StrikeYSize: 100
OS2StrikeYPos: 644
OS2CapHeight: 1428
OS2XHeight: 1072
OS2FamilyClass: 2048
OS2Vendor: 'GOOG'
OS2CodePages: 00000001.00000000
OS2UnicodeRanges: 80000003.00002000.00100000.00000000
Lookup: 258 0 0 "PamudpodKern" { "PamudpodKern-1" [150,0,2] } ['kern' ('DFLT' <'dflt' > 'hano' <'dflt' > 'tagl' <'TGL ' 'dflt' > ) ]
Lookup: 260 0 0 "markMarkPositioninginTagaloglookup0" { "markMarkPositioninginTagaloglookup0 subtable"  } ['mark' ('DFLT' <'dflt' > 'hano' <'dflt' > 'tagl' <'dflt' > 'tagl' <'TGL ' > ) ]
Lookup: 260 0 0 "markMarkPositioninginTagaloglookup1" { "markMarkPositioninginTagaloglookup1 subtable"  } ['mark' ('DFLT' <'dflt' > 'hano' <'dflt' > 'tagl' <'dflt' > 'tagl' <'TGL ' > ) ]
Lookup: 262 0 0 "Mkmk" { "Mkmk-1"  } ['mkmk' ('DFLT' <'dflt' > 'hano' <'dflt' > 'tagl' <'TGL ' 'dflt' > ) ]
MarkAttachClasses: 1
DEI: 91125
KernClass2: 3 2 "PamudpodKern-1"

StartChar: .notdef
Encoding: 0 0 0
GlifName: _notdef
Width: 1200
VWidth: 0
Flags: HMW
LayerCount: 2
Fore
SplineSet
188 0 m 257
 188 1428 l 257
 1010 1428 l 257
 1010 0 l 257
 188 0 l 257
290 102 m 257
 908 102 l 257
 908 1326 l 257
 290 1326 l 257
 290 102 l 257
EndSplineSet
EndChar

StartChar: uni1700
Encoding: 4 5888 4
GlifName: uni1700
Width: 2028
VWidth: 0
GlyphClass: 2
Flags: HMW
LayerCount: 2
Fore
SplineSet
168 746 m 257
 168 886 l 257
 516 886 l 257
 516 746 l 257
 168 746 l 257
168 1036 m 257
 168 1176 l 257
 908 1176 l 257
 908 1036 l 257
 168 1036 l 257
184 1421 m 257
 204 1559 l 257
 305 1543 390 1501 460 1432 c 256
 479 1413 495 1392 511 1371 c 256
 516 1365 521 1358 525 1352 c 256
 584 1260 614 1150 615 1020 c 256
 615 1007 615 994 614 981 c 256
 610 907 587 786 546 618 c 256
 542 602 539 588 536 575 c 256
 519 501 509 440 507 391 c 256
 507 384 507 377 507 371 c 256
 508 315 517 268 535 229 c 256
 545 209 557 192 571 178 c 256
 574 175 577 172 579 170 c 256
 597 155 616 146 638 140 c 256
 648 138 659 137 669 137 c 256
 688 138 708 141 727 148 c 256
 756 159 787 177 817 203 c 256
 826 211 833 218 841 226 c 256
 886 272 936 337 989 421 c 258
 1211 775 l 258
 1224 795 1241 824 1264 862 c 256
 1319 954 1363 1022 1397 1067 c 256
 1418 1095 1440 1120 1461 1142 c 256
 1485 1166 1510 1186 1534 1203 c 256
 1596 1244 1661 1267 1729 1270 c 258
 1729 1270 l 258
 1733 1270 1737 1270 1741 1270 c 256
 1804 1269 1861 1252 1913 1219 c 258
 1913 1219 l 258
 1931 1207 1947 1194 1961 1180 c 256
 1992 1148 2016 1111 2032 1068 c 257
 1900 1020 l 257
 1890 1045 1878 1065 1862 1081 c 256
 1854 1089 1846 1096 1837 1102 c 256
 1805 1121 1773 1131 1741 1130 c 258
 1735 1130 l 258
 1695 1129 1655 1115 1613 1087 c 256
 1595 1074 1577 1060 1560 1043 c 256
 1542 1025 1525 1004 1509 983 c 256
 1477 941 1436 876 1384 790 c 256
 1360 750 1341 721 1329 701 c 258
 1107 347 l 258
 1047 253 992 179 940 127 c 256
 928 115 917 106 907 97 c 256
 862 60 818 32 775 16 c 258
 775 16 l 258
 738 3 702 -3 668 -3 c 256
 646 -3 625 -1 605 4 c 256
 560 16 521 36 487 65 c 258
 486 65 l 258
 480 70 476 75 472 79 c 256
 446 105 425 134 409 167 c 256
 381 227 367 295 367 371 c 256
 367 381 367 389 367 396 c 256
 370 455 381 525 400 607 c 256
 403 622 406 637 410 652 c 256
 449 812 471 923 474 987 c 256
 474 999 475 1010 475 1020 c 256
 474 1123 451 1208 407 1276 c 256
 403 1281 400 1286 398 1289 c 256
 386 1306 374 1320 361 1333 c 256
 312 1381 253 1410 184 1421 c 257
EndSplineSet
EndChar

StartChar: uni1701
Encoding: 5 5889 5
GlifName: uni1701
Width: 2022
VWidth: 0
GlyphClass: 2
Flags: HMW
LayerCount: 2
Fore
SplineSet
63 211 m 257
 125 337 l 257
 193 304 264 289 337 292 c 256
 412 297 480 319 542 357 c 256
 569 375 594 394 615 415 c 256
 644 444 667 477 687 512 c 256
 721 578 738 647 738 718 c 257
 878 722 l 257
 884 619 923 520 975 448 c 257
 1053 516 1114 617 1135 730 c 257
 1274 717 l 257
 1274 627 1294 545 1336 471 c 256
 1356 438 1378 410 1402 386 c 256
 1421 367 1440 352 1461 338 c 256
 1515 305 1571 289 1628 290 c 256
 1688 293 1740 312 1785 347 c 257
 1871 237 l 257
 1801 183 1722 154 1633 150 c 258
 1631 150 l 258
 1502 148 1379 212 1303 287 c 256
 1270 321 1241 358 1216 400 c 256
 1202 424 1190 448 1180 472 c 257
 1169 455 1140 414 1101 374 c 256
 1071 344 1038 318 1003 294 c 258
 954 261 l 257
 913 304 l 258
 873 347 839 394 811 447 c 257
 785 398 751 354 714 316 c 256
 685 287 652 261 618 239 c 258
 617 239 l 257
 533 187 442 158 344 152 c 258
 343 152 l 258
 244 148 151 168 63 211 c 257
59 1032 m 257
 153 1136 l 257
 254 1046 374 996 513 986 c 256
 622 979 770 1006 958 1065 c 258
 978 1071 l 258
 1178 1135 1333 1167 1447 1167 c 256
 1464 1167 1480 1167 1494 1166 c 256
 1678 1155 1834 1087 1960 967 c 257
 1864 865 l 257
 1761 962 1635 1016 1486 1026 c 256
 1473 1027 1460 1027 1447 1027 c 256
 1347 1026 1205 997 1021 938 c 258
 1001 932 l 258
 795 867 629 838 503 846 c 256
 331 859 183 921 59 1032 c 257
EndSplineSet
EndChar

StartChar: uni1702
Encoding: 6 5890 6
GlifName: uni1702
Width: 1070
VWidth: 0
GlyphClass: 2
Flags: HMW
LayerCount: 2
Fore
SplineSet
284 1062 m 257
 220 1186 l 257
 440 1300 706 1324 857 1171 c 256
 908 1117 949 1042 937 943 c 256
 921 837 857 760 784 710 c 257
 897 652 994 532 978 364 c 256
 961 237 886 140 796 82 c 256
 605 -38 330 -25 95 63 c 257
 145 193 l 257
 384 103 680 108 801 279 c 256
 839 339 853 414 819 488 c 256
 762 595 662 621 492 622 c 256
 472 622 452 622 432 622 c 258
 396 622 l 257
 396 762 l 257
 432 762 l 258
 605 763 709 794 776 897 c 256
 796 933 806 974 791 1021 c 256
 764 1085 707 1119 629 1133 c 256
 521 1149 405 1125 284 1062 c 257
EndSplineSet
EndChar

StartChar: uni1703
Encoding: 7 5891 7
GlifName: uni1703
Width: 1968
VWidth: 0
GlyphClass: 2
Flags: HMW
AnchorPoint: "Anchor1" 1078 0 basechar 0
AnchorPoint: "Anchor0" 976 1386 basechar 0
AnchorPoint: "Anchor-1" 1078 0 basechar 0
AnchorPoint: "Anchor-0" 976 1386 basechar 0
LayerCount: 2
Fore
SplineSet
926 964 m 257
 1066 964 l 257
 1066 268 l 257
 926 268 l 257
 926 964 l 257
92 215 m 257
 192 313 l 257
 193 312 194 311 195 310 c 256
 273 234 366 192 476 184 c 256
 532 181 590 188 648 203 c 256
 692 215 750 237 822 268 c 258
 1098 388 l 258
 1187 426 1257 453 1308 467 c 258
 1309 467 l 258
 1391 489 1469 499 1543 496 c 258
 1543 496 l 257
 1665 489 1775 453 1873 388 c 257
 1795 272 l 257
 1717 323 1632 351 1537 356 c 256
 1476 358 1412 350 1346 332 c 256
 1300 319 1236 295 1154 260 c 258
 878 140 l 258
 798 105 734 81 685 68 c 258
 684 68 l 258
 610 49 538 40 468 44 c 258
 467 44 l 257
 321 55 197 111 96 211 c 256
 95 212 93 214 92 215 c 257
92 927 m 257
 192 1025 l 257
 193 1024 194 1023 195 1022 c 256
 273 946 366 904 476 896 c 256
 532 893 590 900 648 915 c 256
 692 927 750 949 822 980 c 258
 1098 1100 l 258
 1187 1138 1257 1165 1308 1179 c 258
 1309 1179 l 258
 1391 1201 1469 1211 1543 1208 c 258
 1543 1208 l 257
 1665 1201 1775 1165 1873 1100 c 257
 1795 984 l 257
 1717 1035 1632 1063 1537 1068 c 256
 1476 1070 1412 1062 1346 1044 c 256
 1300 1031 1236 1007 1154 972 c 258
 878 852 l 258
 798 817 734 793 685 780 c 258
 684 780 l 258
 610 761 538 752 468 756 c 258
 467 756 l 257
 321 767 197 823 96 923 c 256
 95 924 93 926 92 927 c 257
EndSplineSet
EndChar

StartChar: uni1704
Encoding: 8 5892 8
GlifName: uni1704
Width: 1674
VWidth: 0
GlyphClass: 2
Flags: HMW
AnchorPoint: "Anchor1" 1090 0 basechar 0
AnchorPoint: "Anchor0" 800 1386 basechar 0
AnchorPoint: "Anchor-1" 1090 0 basechar 0
AnchorPoint: "Anchor-0" 800 1386 basechar 0
LayerCount: 2
Fore
SplineSet
220 1186 m 257
 332 1244 456 1279 571 1279 c 0
 682 1279 783 1246 857 1171 c 256
 902 1123 939 1058 939 976 c 0
 939 849 861 763 784 710 c 257
 888 656 979 549 979 401 c 0
 979 251 891 143 796 82 c 256
 698 21 579 -6 454 -6 c 0
 334 -6 210 20 95 63 c 257
 145 193 l 257
 244 156 351 136 453 136 c 0
 598 136 730 178 801 279 c 256
 824 316 839 357 839 401 c 0
 839 429 832 459 819 488 c 256
 762 595 662 621 492 622 c 258
 396 622 l 257
 396 762 l 257
 432 762 l 258
 609 763 799 807 799 975 c 0
 799 1091 682 1138 563 1138 c 0
 474 1138 381 1112 284 1062 c 257
 220 1186 l 257
1048 1076 m 0
 981 1076 929 1049 886 1018 c 257
 802 1130 l 257
 868 1178 947 1216 1049 1216 c 0
 1241 1216 1343 1079 1359 901 c 256
 1361 875 1362 796 1362 700 c 258
 1362 348 l 258
 1364 182 1425 144 1584 136 c 258
 1624 134 l 257
 1616 -6 l 257
 1576 -4 l 258
 1451 3 1382 22 1315 82 c 256
 1248 146 1223 217 1222 348 c 258
 1222 700 l 258
 1222 793 1221 868 1219 889 c 256
 1208 995 1162 1076 1048 1076 c 0
EndSplineSet
EndChar

StartChar: uni1705
Encoding: 9 5893 9
GlifName: uni1705
Width: 2022
VWidth: 0
GlyphClass: 2
Flags: HMWO
AnchorPoint: "Anchor1" 1128 0 basechar 0
AnchorPoint: "Anchor0" 976 1386 basechar 0
AnchorPoint: "Anchor-1" 1128 0 basechar 0
AnchorPoint: "Anchor-0" 976 1386 basechar 0
LayerCount: 2
Fore
SplineSet
1498 100 m 257
 1462 236 l 257
 1549 260 1621 300 1679 357 c 256
 1683 361 1688 366 1692 371 c 256
 1725 409 1748 447 1763 487 c 256
 1777 531 1781 574 1774 613 c 256
 1765 652 1748 684 1723 709 c 258
 1716 715 l 258
 1684 741 1648 755 1609 758 c 256
 1573 758 1537 750 1502 734 c 256
 1471 718 1436 695 1396 662 c 256
 1369 640 1344 620 1322 604 c 256
 1287 579 1259 562 1236 551 c 258
 1234 550 l 258
 1200 535 1166 526 1132 520 c 258
 1131 520 l 258
 1104 516 1071 514 1032 514 c 258
 956 514 l 257
 956 654 l 257
 1032 654 l 258
 1065 654 1092 655 1111 658 c 256
 1134 662 1156 669 1177 678 c 256
 1205 692 1250 722 1308 770 c 256
 1358 811 1402 841 1441 860 c 258
 1441 860 l 258
 1499 887 1556 900 1614 898 c 258
 1615 898 l 257
 1688 893 1753 867 1808 821 c 256
 1812.9967039 816.003296104 1818.89685862 811.103141383 1822 808 c 260
 1867 762 1897 706 1911 641 c 258
 1911 640 l 258
 1923 575 1918 509 1896 442 c 258
 1895 440 l 258
 1874 382 1840 327 1796 277 c 258
 1796 277 l 258
 1790 271 1784 264 1778 258 c 256
 1701 182 1608 129 1498 100 c 257
326 1285 m 257
 394 1163 l 257
 331 1127 l 258
 298 1108 277 1094 261 1076 c 256
 248 1056 242 1037 242 1017 c 256
 246 991 257 972 273 956 c 256
 294 940 318 931 345 930 c 256
 380 931 431 946 496 975 c 256
 543 995 584 1010 622 1019 c 256
 652 1026 680 1030 704 1030 c 258
 705 1030 l 257
 766 1027 821 1011 869 979 c 257
 871 977 l 258
 887 966 900 954 913 942 c 256
 939 915 962 884 979 850 c 258
 979 850 l 257
 1016 771 1033 673 1030 554 c 258
 1030 553 l 258
 1027 486 1019 428 1004 380 c 258
 1003 379 l 258
 982 317 953 265 913 225 c 256
 910 222 907 220 904 217 c 258
 903 216 l 257
 849 170 787 142 716 133 c 258
 715 133 l 258
 665 128 603 133 530 147 c 256
 467 159 423 166 397 166 c 256
 332 163 259 133 275 58 c 256
 285 31 304 13 334 10 c 257
 322 -130 l 257
 280 -126 242 -111 209 -86 c 258
 208 -85 l 257
 207 -84 l 258
 202 -80 197 -75 194 -72 c 256
 169 -46 152 -16 141 18 c 258
 140 19 l 257
 130 60 131 101 143 141 c 258
 143 142 l 257
 144 143 l 258
 156 176 175 206 200 231 c 256
 204 234 207 238 209 240 c 258
 210 241 l 257
 211 242 l 258
 260 282 320 303 393 306 c 258
 394 306 l 258
 431 306 485 299 558 285 c 256
 618 273 665 269 700 272 c 256
 743 278 779 294 809 320 c 256
 810 321 813 323 814 324 c 256
 839 350 857 383 870 422 c 256
 881 460 888 505 890 558 c 256
 893 688 873 782 814 843 c 256
 806 851 799 857 791 863 c 256
 764 880 735 889 703 890 c 256
 667 889 616 875 552 847 c 256
 517 831 484 818 454 809 c 256
 411 796 374 790 343 790 c 258
 343 790 l 257
 281 793 228 812 183 848 c 258
 182 849 l 257
 181 850 l 258
 176 854 172 858 169 861 c 256
 130 902 107 950 102 1006 c 258
 102 1007 l 257
 100 1063 117 1114 150 1160 c 258
 151 1162 l 257
 151 1163 l 258
 157 1170 163 1175 168 1180 c 256
 191 1203 222 1226 261 1249 c 258
 261 1249 l 257
 326 1285 l 257
EndSplineSet
EndChar

StartChar: uni1706
Encoding: 10 5894 10
GlifName: uni1706
Width: 1950
VWidth: 0
GlyphClass: 2
Flags: HMW
AnchorPoint: "Anchor1" 1078 0 basechar 0
AnchorPoint: "Anchor0" 976 1386 basechar 0
AnchorPoint: "Anchor-1" 1078 0 basechar 0
AnchorPoint: "Anchor-0" 976 1386 basechar 0
LayerCount: 2
Fore
SplineSet
292 792 m 257
 264 773 258 735 284 708 c 256
 303 691 330 682 362 682 c 256
 459 688 535 746 604 802 c 256
 628 822 663 851 707 889 c 256
 833 996 933 1071 1005 1113 c 256
 1144 1193 1286 1240 1431 1257 c 256
 1596 1274 1757 1247 1881 1201 c 257
 1831 1070 l 257
 1731 1107 1609 1129 1479 1118 c 256
 1342 1104 1208 1059 1076 982 c 256
 837 840 656 641 540 380 c 256
 486 255 454 126 442 -6 c 257
 302 6 l 257
 320 205 388 408 475 563 c 257
 437 550 401 543 365 542 c 256
 264 542 186 588 150 655 c 256
 95 762 147 866 220 912 c 257
 292 792 l 257
EndSplineSet
EndChar

StartChar: uni1707
Encoding: 11 5895 11
GlifName: uni1707
Width: 2096
VWidth: 0
GlyphClass: 2
Flags: HMW
AnchorPoint: "Anchor1" 1104 0 basechar 0
AnchorPoint: "Anchor0" 1054 1386 basechar 0
AnchorPoint: "Anchor-1" 1104 0 basechar 0
AnchorPoint: "Anchor-0" 1054 1386 basechar 0
LayerCount: 2
Fore
SplineSet
437 967 m 257
 535 869 l 257
 504 837 l 258
 409 741 334 679 334 540 c 256
 334 387 466 290 621 290 c 256
 816 290 1268 466 1461 466 c 256
 1656 466 1850 403 1999 277 c 257
 1909 171 l 257
 1780 279 1639 329 1494 329 c 256
 1230 329 876 150 615 150 c 256
 390 150 192 292 192 511 c 256
 192 709 282 812 404 935 c 258
 437 967 l 257
97 1027 m 257
 187 1133 l 257
 306 1032 447 986 617 986 c 256
 846 986 1249 1156 1460 1162 c 256
 1670 1167 1855 1100 2000 973 c 257
 1908 867 l 257
 1789 971 1637 1027 1464 1022 c 256
 1248 1016 936 846 619 846 c 256
 404 846 241 904 97 1027 c 257
EndSplineSet
EndChar

StartChar: uni1708
Encoding: 12 5896 12
GlifName: uni1708
Width: 1700
VWidth: 0
GlyphClass: 2
Flags: HMW
AnchorPoint: "Anchor1" 874 -176 basechar 0
AnchorPoint: "Anchor0" 820 1386 basechar 0
AnchorPoint: "Anchor-0" 820 1386 basechar 0
AnchorPoint: "Anchor-1" 874 -176 basechar 0
LayerCount: 2
Fore
SplineSet
354 23 m 257
 222 -23 l 257
 163 144 139 311 148 480 c 256
 169 800 312 1056 539 1186 c 256
 635 1239 742 1268 852 1268 c 256
 939 1268 1028 1250 1114 1211 c 256
 1372 1088 1535 818 1556 480 c 256
 1565 308 1539 139 1478 -25 c 257
 1346 24 l 257
 1400 171 1424 321 1416 472 c 256
 1398 755 1269 982 1055 1084 c 256
 983 1116 908 1130 836 1128 c 256
 756 1125 678 1103 608 1064 c 256
 419 953 305 740 288 472 c 256
 280 321 302 171 354 23 c 257
667 -66 m 257
 724 36 802 125 894 190 c 257
 854 209 813 228 773 247 c 256
 736 266 704 289 696 331 c 256
 687 388 716 424 751 447 c 258
 887 533 l 257
 848 552 810 570 771 589 c 256
 737 608 708 632 705 661 c 256
 698 720 719 747 749 769 c 256
 769 783 789 797 808 811 c 258
 876 860 l 257
 790 920 750 1002 750 1150 c 258
 750 1198 l 257
 890 1198 l 257
 890 1150 l 258
 891 1052 906 1002 965 970 c 256
 1010 946 1036 916 1036 864 c 256
 1036 814 986 768 953 743 c 256
 930 726 881 692 881 692 c 257
 881 692 948 658 982 643 c 256
 1024 625 1063 586 1065 532 c 256
 1066 498 1039 464 1009 445 c 258
 869 357 l 257
 869 357 956 318 982 303 c 256
 1028 277 1058 240 1058 188 c 256
 1058 134 1001 97 959 65 c 256
 891 10 832 -57 789 -134 c 257
 667 -66 l 257
EndSplineSet
EndChar

StartChar: uni1709
Encoding: 13 5897 13
GlifName: uni1709
Width: 2140
VWidth: 0
GlyphClass: 2
Flags: HMW
AnchorPoint: "Anchor1" 1180 0 basechar 0
AnchorPoint: "Anchor0" 976 1386 basechar 0
AnchorPoint: "Anchor-1" 1180 0 basechar 0
AnchorPoint: "Anchor-0" 976 1386 basechar 0
LayerCount: 2
Fore
SplineSet
1356 763 m 257
 1464 853 l 257
 1511 797 1554 738 1593 678 c 0
 1635 613 1676 541 1709 470 c 257
 1583 410 l 257
 1552 476 1516 539 1478 598 c 0
 1441 655 1400 710 1356 763 c 257
114 742 m 257
 114 882 l 257
 358 882 l 258
 420 882 474 879 513 863 c 256
 576 838 613 799 595 685 c 258
 571 529 l 258
 558 440 551 381 549 351 c 256
 546 229 586 140 694 130 c 256
 799 128 874 198 938 261 c 256
 1135 460 1304 777 1462 1037 c 256
 1539 1159 1632 1271 1808 1271 c 0
 1952 1271 2061 1178 2110 1073 c 257
 1982 1015 l 257
 1953 1075 1900 1131 1806 1131 c 256
 1716 1131 1636 1050 1582 963 c 258
 1358 596 l 258
 1244 410 1165 291 1037 162 c 256
 948 74 835 -19 685 -10 c 256
 578 -1 496 60 453 138 c 256
 421 198 409 272 409 357 c 256
 409 423 443 618 457 707 c 256
 459 718 461 728 457 734 c 257
 444 740 392 742 358 742 c 258
 114 742 l 257
EndSplineSet
EndChar

StartChar: uni170A
Encoding: 14 5898 14
GlifName: uni170A_
Width: 1694
VWidth: 0
GlyphClass: 2
Flags: HMW
AnchorPoint: "Anchor1" 1032 -158 basechar 0
AnchorPoint: "Anchor0" 968 1386 basechar 0
AnchorPoint: "Anchor-1" 1032 -158 basechar 0
AnchorPoint: "Anchor-0" 968 1386 basechar 0
LayerCount: 2
Fore
SplineSet
1131 -7 m 256
 1000 -7 907 49 841 126 c 257
 748 58 634 -8 490 -8 c 256
 204 -8 66 243 136 538 c 256
 206 825 397 1104 658 1219 c 256
 743 1255 829 1273 916 1273 c 256
 1151 1273 1326 1142 1426 995 c 256
 1509 871 1561 727 1561 536 c 256
 1561 312 1478 148 1344 58 c 257
 1276 15 1205 -7 1131 -7 c 256
917 1133 m 256
 743 1133 617 1051 520 955 c 256
 384 815 258 624 258 388 c 256
 258 237 340 132 490 132 c 256
 625 132 728 208 810 280 c 258
 875 339 l 257
 917 262 l 258
 957 190 1025 134 1130 134 c 256
 1331 134 1421 331 1421 537 c 256
 1421 789 1309 972 1149 1069 c 256
 1078 1109 1005 1133 917 1133 c 256
EndSplineSet
EndChar

StartChar: uni170B
Encoding: 15 5899 15
GlifName: uni170B_
Width: 2060
VWidth: 0
GlyphClass: 2
Flags: HMW
AnchorPoint: "Anchor1" 1154 0 basechar 0
AnchorPoint: "Anchor0" 976 1386 basechar 0
AnchorPoint: "Anchor-1" 1154 0 basechar 0
AnchorPoint: "Anchor-0" 976 1386 basechar 0
LayerCount: 2
Fore
SplineSet
1180 586 m 257
 1065 645 946 678 810 678 c 256
 704 678 601 659 502 619 c 257
 450 749 l 257
 566 795 685 818 808 818 c 256
 970 818 1110 780 1244 710 c 257
 1180 586 l 257
1896 1012 m 257
 1868 1073 1810 1127 1726 1127 c 256
 1607 1127 1548 1040 1495 958 c 258
 1151 415 l 258
 1044 248 918 -10 664 -14 c 256
 464 -16 367 185 367 403 c 256
 367 553 390 665 428 814 c 256
 430 823 432 830 433 836 c 256
 432 867 369 858 328 858 c 258
 124 858 l 257
 124 998 l 257
 328 998 l 258
 411 998 471 992 512 964 c 256
 538 946 556 920 568 880 c 256
 576 843 572 811 564 778 c 256
 528 638 507 538 507 402 c 256
 507 285 534 193 600 146 c 256
 621 133 642 127 664 126 c 256
 731 130 773 168 814 209 c 256
 890 286 963 379 1033 489 c 256
 1148 670 1262 853 1377 1034 c 256
 1426 1109 1463 1159 1523 1202 c 256
 1586 1245 1653 1267 1724 1267 c 256
 1873 1267 1977 1175 2024 1068 c 257
 1896 1012 l 257
EndSplineSet
EndChar

StartChar: uni170C
Encoding: 16 5900 16
GlifName: uni170C_
Width: 2058
VWidth: 0
GlyphClass: 2
Flags: HMW
AnchorPoint: "Anchor1" 1166 0 basechar 0
AnchorPoint: "Anchor0" 1040 1386 basechar 0
AnchorPoint: "Anchor-1" 1166 0 basechar 0
AnchorPoint: "Anchor-0" 1040 1386 basechar 0
LayerCount: 2
Fore
SplineSet
1644 875 m 257
 1683 857 1720 846 1771 846 c 256
 1866 846 1957 898 1957 993 c 256
 1957 1074 1888 1131 1806 1131 c 256
 1690 1131 1633 1045 1582 963 c 258
 1358 596 l 258
 1244 410 1165 291 1037 162 c 256
 949 75 845 -10 700 -10 c 256
 584 -10 496 59 453 138 c 256
 424 193 408 260 408 337 c 256
 408 413 445 627 453 707 c 258
 457 744 l 257
 114 742 l 257
 114 882 l 257
 358 882 l 258
 418 882 476 882 513 863 c 256
 565 835 598 792 598 723 c 256
 598 618 549 422 549 338 c 256
 549 226 592 130 698 130 c 256
 857 130 968 286 1048 387 c 256
 1183 561 1338 833 1462 1037 c 256
 1538 1158 1632 1272 1804 1272 c 256
 1966 1272 2097 1151 2097 994 c 256
 2097 814 1948 706 1771 706 c 256
 1697 706 1638 724 1584 749 c 257
 1644 875 l 257
EndSplineSet
EndChar

StartChar: uni170E
Encoding: 17 5902 17
GlifName: uni170E_
Width: 1826
VWidth: 0
GlyphClass: 2
Flags: HMW
AnchorPoint: "Anchor1" 1014 -98 basechar 0
AnchorPoint: "Anchor0" 976 1386 basechar 0
AnchorPoint: "Anchor-1" 1014 -98 basechar 0
AnchorPoint: "Anchor-0" 976 1386 basechar 0
LayerCount: 2
Fore
SplineSet
938 601 m 257
 855 646 791 723 791 844 c 0
 791 872 794 900 802 928 c 257
 671 871 555 842 453 842 c 0
 286 842 149 909 49 1016 c 257
 151 1112 l 257
 226 1032 329 982 451 982 c 0
 556 982 685 1021 839 1101 c 256
 993 1181 1104 1232 1173 1253 c 256
 1241 1273 1312 1286 1393 1286 c 0
 1527 1286 1653 1244 1760 1169 c 257
 1683 1053 l 257
 1593 1109 1501 1139 1384 1139 c 0
 1211 1139 1035 1064 959 942 c 256
 940 908 931 874 931 843 c 0
 931 779 967 742 1011 722 c 256
 1060 700 1098 673 1098 606 c 0
 1098 518 1015 485 960 449 c 257
 1037 415 1137 384 1137 296 c 256
 1137 220 1078 174 1024 138 c 256
 963 95 912 42 874 -20 c 257
 754 52 l 257
 817 153 906 232 989 284 c 261
 910 319 801 351 801 449 c 256
 801 534 880 564 938 601 c 257
EndSplineSet
EndChar

StartChar: uni170F
Encoding: 18 5903 18
GlifName: uni170F_
Width: 1522
VWidth: 0
GlyphClass: 2
Flags: HMW
AnchorPoint: "Anchor1" 914 -60 basechar 0
AnchorPoint: "Anchor0" 1074 1484 basechar 0
AnchorPoint: "Anchor-1" 914 -60 basechar 0
AnchorPoint: "Anchor-0" 1074 1484 basechar 0
LayerCount: 2
Fore
SplineSet
649 1170 m 257
 745 1281 876 1359 1038 1359 c 0
 1304 1359 1445 1163 1418 881 c 256
 1404 746 1362 611 1294 476 c 256
 1186 267 1003 -14 705 -14 c 0
 506 -14 389 134 389 333 c 4
 389 490 456 603 456 720 c 0
 456 749 407 746 372 746 c 258
 116 746 l 257
 116 886 l 257
 373 886 l 258
 502 884 596 842 596 719 c 0
 596 700 593 679 588 657 c 258
 564 549 l 258
 540 440 529 392 529 334 c 0
 529 213 587 126 704 126 c 0
 934 126 1087 379 1170 540 c 256
 1230 661 1266 779 1278 895 c 256
 1294 1086 1222 1215 1039 1215 c 0
 920 1215 824 1158 755 1078 c 257
 649 1170 l 257
EndSplineSet
EndChar

StartChar: uni1710
Encoding: 19 5904 19
GlifName: uni1710
Width: 1844
VWidth: 0
GlyphClass: 2
Flags: HMW
AnchorPoint: "Anchor1" 1218 -158 basechar 0
AnchorPoint: "Anchor0" 976 1386 basechar 0
AnchorPoint: "Anchor-1" 1218 -158 basechar 0
AnchorPoint: "Anchor-0" 976 1386 basechar 0
LayerCount: 2
Fore
SplineSet
471 -18 m 257
 354 -18 l 257
 354 1130 l 257
 40 1130 l 257
 40 1270 l 257
 494 1270 l 257
 494 304 l 257
 803 847 l 258
 885 990 946 1079 1021 1147 c 256
 1105 1220 1201 1278 1339 1278 c 256
 1537 1278 1698 1131 1698 942 c 256
 1698 817 1635 722 1558 670 c 257
 1660 613 1750 509 1750 362 c 256
 1750 189 1618 73 1481 23 c 256
 1401 -5 1279 -18 1120 -18 c 258
 1032 -18 l 257
 1032 122 l 257
 1122 122 l 258
 1312 122 1610 149 1610 360 c 256
 1610 559 1423 594 1196 594 c 258
 1176 594 l 257
 1173 734 l 257
 1277 738 l 258
 1433 745 1558 783 1558 940 c 256
 1558 1053 1455 1137 1339 1137 c 256
 1234 1137 1159 1088 1100 1029 c 256
 1050 978 992 894 925 777 c 258
 471 -18 l 257
EndSplineSet
EndChar

StartChar: uni1711
Encoding: 20 5905 20
GlifName: uni1711
Width: 2098
VWidth: 0
GlyphClass: 2
Flags: HMW
AnchorPoint: "Anchor1" 1014 0 basechar 0
AnchorPoint: "Anchor0" 1064 1386 basechar 0
AnchorPoint: "Anchor-1" 1014 0 basechar 0
AnchorPoint: "Anchor-0" 1064 1386 basechar 0
LayerCount: 2
Fore
SplineSet
94 653 m 257
 186 759 l 257
 437 543 687 603 1048 696 c 0
 1461 802 1733 846 2005 584 c 257
 1907 484 l 257
 1666 714 1419 653 1052 558 c 4
 650 454 375 409 94 653 c 257
EndSplineSet
EndChar

StartChar: uni1712
Encoding: 21 5906 21
GlifName: uni1712
Width: 0
VWidth: 0
GlyphClass: 4
Flags: HMW
AnchorPoint: "Mkmk" -590 1560 mark 0
AnchorPoint: "Mkmk" -74 1560 basemark 0
AnchorPoint: "Anchor0" -342 1386 mark 0
AnchorPoint: "Anchor-0" -342 1386 mark 0
LayerCount: 2
Fore
SplineSet
-485 1552 m 256
 -485 1633 -419 1699 -338 1699 c 256
 -257 1699 -191 1633 -191 1552 c 256
 -191 1471 -257 1405 -338 1405 c 256
 -419 1405 -485 1471 -485 1552 c 256
EndSplineSet
EndChar

StartChar: uni1713
Encoding: 22 5907 22
GlifName: uni1713
Width: 0
VWidth: 0
GlyphClass: 4
Flags: HMW
AnchorPoint: "Mkmk" 30 -200 basemark 0
AnchorPoint: "Mkmk" -446 -200 mark 0
AnchorPoint: "Anchor1" -196 0 mark 0
AnchorPoint: "Anchor-1" -196 0 mark 0
LayerCount: 2
Fore
SplineSet
-343 -199 m 256
 -343 -118 -277 -52 -196 -52 c 256
 -115 -52 -49 -118 -49 -199 c 256
 -49 -280 -115 -345 -196 -345 c 256
 -277 -345 -343 -280 -343 -199 c 256
EndSplineSet
EndChar

StartChar: uni1714
Encoding: 23 5908 23
GlifName: uni1714
Width: 0
VWidth: 0
GlyphClass: 4
Flags: HMW
AnchorPoint: "Anchor1" -248 0 mark 0
AnchorPoint: "Anchor-1" -248 0 mark 0
LayerCount: 2
Fore
SplineSet
-305 -366 m 257
 -305 -250 l 257
 -424 -250 l 257
 -424 -131 l 257
 -305 -131 l 257
 -305 -12 l 257
 -186 -12 l 257
 -186 -131 l 257
 -70 -131 l 257
 -70 -250 l 257
 -186 -250 l 257
 -186 -366 l 257
 -305 -366 l 257
EndSplineSet
EndChar

StartChar: uni1735
Encoding: 24 5941 24
GlifName: uni1735
Width: 658
VWidth: 0
GlyphClass: 2
Flags: HMW
LayerCount: 2
Fore
SplineSet
176 -292 m 257
 40 -261 l 257
 444 1516 l 257
 580 1485 l 257
 176 -292 l 257
EndSplineSet
EndChar

StartChar: uni1736
Encoding: 25 5942 25
GlifName: uni1736
Width: 976
VWidth: 0
GlyphClass: 2
Flags: HMW
LayerCount: 2
Fore
SplineSet
496 -292 m 257
 360 -261 l 257
 764 1516 l 257
 900 1485 l 257
 496 -292 l 257
176 -292 m 257
 40 -261 l 257
 444 1516 l 257
 580 1485 l 257
 176 -292 l 257
EndSplineSet
EndChar

StartChar: uni25CC
Encoding: 29 9676 29
GlifName: uni25C_C_
Width: 1188
VWidth: 0
GlyphClass: 2
Flags: HMW
AnchorPoint: "Anchor1" 590 0 basechar 0
AnchorPoint: "Anchor0" 600 1180 basechar 0
AnchorPoint: "Anchor-1" 590 0 basechar 0
AnchorPoint: "Anchor-0" 600 1180 basechar 0
LayerCount: 2
Fore
SplineSet
646 1028 m 256
 646 992 629 974 594 974 c 256
 559 974 542 992 542 1028 c 256
 542 1063 559 1080 594 1080 c 256
 629 1080 646 1063 646 1028 c 256
816 992 m 256
 816 957 799 940 766 940 c 256
 729 940 710 957 710 992 c 256
 710 1028 729 1046 766 1046 c 256
 799 1046 816 1028 816 992 c 256
478 992 m 256
 478 957 460 940 424 940 c 256
 389 940 372 957 372 992 c 256
 372 1028 389 1046 424 1046 c 256
 460 1046 478 1028 478 992 c 256
960 896 m 256
 960 861 943 844 910 844 c 256
 874 844 856 861 856 896 c 256
 856 932 874 950 910 950 c 256
 943 950 960 932 960 896 c 256
334 896 m 256
 334 861 316 844 280 844 c 256
 245 844 228 861 228 894 c 256
 228 931 245 950 280 950 c 256
 316 950 334 932 334 896 c 256
1058 752 m 256
 1058 716 1040 698 1004 698 c 256
 969 698 952 716 952 752 c 256
 952 787 970 804 1006 804 c 256
 1041 804 1058 787 1058 752 c 256
236 752 m 256
 236 716 219 698 186 698 c 256
 149 698 130 716 130 752 c 256
 130 787 148 804 184 804 c 256
 219 804 236 787 236 752 c 256
1092 582 m 256
 1092 547 1075 530 1042 530 c 256
 1006 530 988 547 988 582 c 256
 988 617 1006 634 1042 634 c 256
 1075 634 1092 617 1092 582 c 256
202 582 m 256
 202 547 185 530 150 530 c 256
 114 530 96 547 96 582 c 256
 96 617 114 634 150 634 c 256
 185 634 202 617 202 582 c 256
1058 412 m 256
 1058 377 1040 360 1004 360 c 256
 969 360 952 377 952 412 c 256
 952 448 969 466 1004 466 c 256
 1040 466 1058 448 1058 412 c 256
236 412 m 256
 236 377 219 360 184 360 c 256
 148 360 130 377 130 412 c 256
 130 448 148 466 184 466 c 256
 219 466 236 448 236 412 c 256
960 266 m 256
 960 231 943 214 910 214 c 256
 874 214 856 231 856 266 c 256
 856 302 874 320 910 320 c 256
 943 320 960 302 960 266 c 256
334 266 m 256
 334 231 316 214 280 214 c 256
 245 214 228 231 228 266 c 256
 228 302 245 320 280 320 c 256
 316 320 334 302 334 266 c 256
816 170 m 256
 816 137 799 120 766 120 c 256
 729 120 710 137 710 170 c 256
 710 206 729 224 766 224 c 256
 799 224 816 206 816 170 c 256
478 174 m 256
 478 138 460 120 424 120 c 256
 389 120 372 137 372 170 c 256
 372 206 389 224 424 224 c 256
 460 224 478 207 478 174 c 256
646 138 m 256
 646 102 629 84 594 84 c 256
 559 84 542 102 542 138 c 256
 542 173 559 190 594 190 c 256
 629 190 646 173 646 138 c 256
EndSplineSet
EndChar

StartChar: uni170D
Encoding: 31 5901 31
GlifName: uni170D_
Width: 2096
VWidth: 0
GlyphClass: 2
Flags: HMW
AnchorPoint: "Anchor1" 964 0 basechar 0
AnchorPoint: "Anchor0" 1054 1386 basechar 0
AnchorPoint: "Anchor-1" 964 0 basechar 0
AnchorPoint: "Anchor-0" 1054 1386 basechar 0
LayerCount: 2
Fore
SplineSet
437 967 m 257
 535 869 l 257
 504 837 l 258
 409 741 334 679 334 540 c 256
 334 387 466 290 621 290 c 256
 816 290 1268 466 1461 466 c 256
 1656 466 1850 403 1999 277 c 257
 1909 171 l 257
 1780 279 1639 329 1494 329 c 256
 1230 329 876 150 615 150 c 256
 390 150 192 292 192 511 c 256
 192 709 282 812 404 935 c 258
 437 967 l 257
97 1027 m 257
 187 1133 l 257
 306 1032 447 986 617 986 c 256
 846 986 1249 1156 1460 1162 c 256
 1670 1167 1855 1100 2000 973 c 257
 1908 867 l 257
 1789 971 1637 1027 1464 1022 c 256
 1248 1016 936 846 619 846 c 256
 404 846 241 904 97 1027 c 257
1389 415 m 257
 1519 361 l 257
 1484 277 1439 198 1386 126 c 256
 1324 43 1253 -30 1173 -92 c 257
 1087 19 l 257
 1158 74 1221 139 1274 210 c 256
 1321 274 1359 343 1389 415 c 257
EndSplineSet
EndChar

StartChar: uni1734
Encoding: 32 5940 32
GlifName: uni1734
Width: 268
VWidth: 0
GlyphClass: 2
Flags: HMW
LayerCount: 2
Fore
SplineSet
66 528 m 257
 206 528 l 257
 206 64 l 258
 206 -221 179 -384 42 -522 c 256
 -69 -630 -184 -670 -408 -670 c 258
 -592 -670 l 257
 -592 -530 l 257
 -408 -530 l 258
 -201 -529 -102 -495 -20 -380 c 256
 59 -265 66 -147 66 64 c 258
 66 528 l 257
EndSplineSet
EndChar

StartChar: uni1712.hollow
Encoding: 33 -1 33
GlifName: uni1712.hollow
Width: 0
VWidth: 0
GlyphClass: 4
Flags: HMW
AnchorPoint: "Mkmk" -74 1560 basemark 0
AnchorPoint: "Mkmk" -590 1560 mark 0
AnchorPoint: "Anchor0" -342 1386 mark 0
AnchorPoint: "Anchor-0" -342 1386 mark 0
LayerCount: 2
Fore
SplineSet
-433 1552 m 256
 -433 1499 -391 1457 -338 1457 c 256
 -285 1457 -243 1499 -243 1552 c 256
 -243 1605 -285 1647 -338 1647 c 256
 -391 1647 -433 1605 -433 1552 c 256
-485 1552 m 256
 -485 1633 -419 1699 -338 1699 c 256
 -257 1699 -191 1633 -191 1552 c 256
 -191 1471 -257 1405 -338 1405 c 256
 -419 1405 -485 1471 -485 1552 c 256
EndSplineSet
EndChar

StartChar: uni1713.hollow
Encoding: 34 -1 34
GlifName: uni1713.hollow
Width: 0
VWidth: 0
GlyphClass: 4
Flags: HMW
AnchorPoint: "Mkmk" 30 -140 basemark 0
AnchorPoint: "Mkmk" -446 -140 mark 0
AnchorPoint: "Anchor1" -196 60 mark 0
AnchorPoint: "Anchor-1" -196 60 mark 0
LayerCount: 2
Fore
SplineSet
-291 -126 m 256
 -291 -179 -248 -221 -195 -221 c 256
 -142 -221 -100 -179 -100 -126 c 256
 -100 -73 -142 -31 -195 -31 c 256
 -248 -31 -291 -73 -291 -126 c 256
-342 -126 m 256
 -342 -45 -276 21 -195 21 c 256
 -114 21 -49 -45 -49 -126 c 256
 -49 -207 -114 -272 -195 -272 c 256
 -276 -272 -342 -207 -342 -126 c 256
EndSplineSet
EndChar

StartChar: uni171F
Encoding: 35 5919 35
GlifName: uni171F_
Width: 1618
VWidth: 0
GlyphClass: 2
Flags: HMW
AnchorPoint: "Anchor-1" 308 -210 basechar 0
AnchorPoint: "Anchor-0" 1202 1764 basechar 0
AnchorPoint: "Anchor0" 1202 1764 basechar 0
AnchorPoint: "Anchor1" 308 -210 basechar 0
LayerCount: 2
Fore
SplineSet
175 230 m 257
 183 168 247 108 301 108 c 256
 384 108 418 156 449 257 c 258
 659 942 l 258
 730 1172 831 1576 1175 1576 c 256
 1363 1576 1536 1443 1536 1230 c 256
 1536 1079 1464 964 1347 905 c 257
 1418 844 1461 762 1461 663 c 256
 1461 515 1362 425 1253 382 c 257
 1353 311 1424 203 1424 64 c 256
 1424 -161 1221 -297 1010 -297 c 256
 899 -297 791 -267 690 -209 c 257
 759 -87 l 257
 841 -134 925 -157 1010 -157 c 256
 1171 -157 1284 -62 1284 64 c 256
 1284 227 1125 334 952 334 c 257
 952 474 l 257
 1164 475 1318 528 1321 663 c 256
 1324 794 1227 854 1100 854 c 257
 1100 994 l 257
 1281 994 1396 1062 1396 1230 c 256
 1396 1357 1301 1436 1175 1436 c 256
 966 1436 874 1166 793 901 c 258
 583 216 l 258
 548 103 475 -32 301 -32 c 256
 163 -32 53 87 37 212 c 257
 175 230 l 257
EndSplineSet
EndChar

StartChar: uni170C.avar
Encoding: 37 -1 37
GlifName: uni170C_.avar
Width: 2058
VWidth: 0
GlyphClass: 2
Flags: HMW
AnchorPoint: "Anchor1" 1166 0 basechar 0
AnchorPoint: "Anchor0" 1040 1386 basechar 0
AnchorPoint: "Anchor-1" 1166 0 basechar 0
AnchorPoint: "Anchor-0" 1040 1386 basechar 0
LayerCount: 2
Fore
SplineSet
1771 846 m 256
 1866 846 1957 898 1957 993 c 256
 1957 1074 1888 1131 1806 1131 c 256
 1690 1131 1633 1045 1582 963 c 258
 1358 596 l 258
 1244 410 1165 291 1037 162 c 256
 949 75 845 -10 700 -10 c 256
 584 -10 496 59 453 138 c 256
 424 193 408 260 408 337 c 256
 408 413 445 627 453 707 c 258
 457 744 l 257
 114 742 l 257
 114 882 l 257
 358 882 l 258
 418 882 476 882 513 863 c 256
 565 835 598 792 598 723 c 256
 598 618 549 422 549 338 c 256
 549 226 592 130 698 130 c 256
 857 130 968 286 1048 387 c 256
 1183 561 1338 833 1462 1037 c 256
 1538 1158 1632 1272 1804 1272 c 256
 1966 1272 2097 1151 2097 994 c 256
 2097 814 1948 706 1771 706 c 256
 1613 706 1507 787 1396 842 c 257
 1488 950 l 257
 1571 910 1656 846 1771 846 c 256
EndSplineSet
EndChar

StartChar: uni170D.avar
Encoding: 38 -1 38
GlifName: uni170D_.avar
Width: 2096
VWidth: 0
GlyphClass: 2
Flags: HMW
AnchorPoint: "Anchor1" 964 0 basechar 0
AnchorPoint: "Anchor0" 1054 1386 basechar 0
AnchorPoint: "Anchor-1" 964 0 basechar 0
AnchorPoint: "Anchor-0" 1054 1386 basechar 0
LayerCount: 2
Fore
SplineSet
437 967 m 257
 535 869 l 257
 504 837 l 258
 409 741 334 679 334 540 c 256
 334 387 466 290 621 290 c 256
 816 290 1268 466 1461 466 c 256
 1656 466 1850 403 1999 277 c 257
 1909 171 l 257
 1780 279 1639 329 1494 329 c 256
 1230 329 876 150 615 150 c 256
 390 150 192 292 192 511 c 256
 192 709 282 812 404 935 c 258
 437 967 l 257
97 1027 m 257
 187 1133 l 257
 306 1032 447 986 617 986 c 256
 846 986 1249 1156 1460 1162 c 256
 1670 1167 1855 1100 2000 973 c 257
 1908 867 l 257
 1789 971 1637 1027 1464 1022 c 256
 1248 1016 936 846 619 846 c 256
 404 846 241 904 97 1027 c 257
1461 645 m 257
 1590 592 l 257
 1555 508 1470 361 1404 250 c 256
 1352 162 1217 14 1137 -48 c 257
 1051 63 l 257
 1122 118 1249 261 1298 334 c 256
 1366 436 1431 573 1461 645 c 257
EndSplineSet
EndChar

StartChar: _ra_tail
Encoding: 39 -1 39
GlifName: _ra_tail
Width: 2096
VWidth: 0
GlyphClass: 2
Flags: HMW
LayerCount: 2
Fore
SplineSet
1389 415 m 257
 1519 361 l 257
 1484 277 1439 198 1386 126 c 256
 1324 43 1253 -30 1173 -92 c 257
 1087 19 l 257
 1158 74 1221 139 1274 210 c 256
 1321 274 1359 343 1389 415 c 257
EndSplineSet
EndChar

StartChar: uni1714.salt
Encoding: 40 -1 40
GlifName: uni1714.salt
Width: 0
VWidth: 0
GlyphClass: 4
Flags: HMW
AnchorPoint: "Anchor1" -248 0 mark 0
AnchorPoint: "Anchor-1" -248 0 mark 0
LayerCount: 2
Fore
SplineSet
-413 -274 m 261
 -329 -190 l 257
 -413 -106 l 257
 -329 -22 l 257
 -245 -106 l 257
 -163 -23 l 257
 -78 -107 l 257
 -161 -190 l 257
 -78 -272 l 257
 -163 -356 l 257
 -245 -274 l 257
 -329 -358 l 257
 -413 -274 l 261
EndSplineSet
EndChar

StartChar: pahantig
Encoding: 41 -1 41
GlifName: pahantig
Width: 444
VWidth: 0
GlyphClass: 2
Flags: HMW
LayerCount: 2
Back
Refer: 22 5907 N 1 0 0 1 420 826 2
Fore
SplineSet
77 627 m 256
 77 708 143 774 224 774 c 256
 305 774 371 708 371 627 c 256
 371 546 305 481 224 481 c 256
 143 481 77 546 77 627 c 256
EndSplineSet
EndChar

StartChar: pahantig_hollow
Encoding: 42 -1 42
GlifName: pahantig_hollow
Width: 444
VWidth: 0
GlyphClass: 2
Flags: HMW
LayerCount: 2
Back
Refer: 34 -1 N 1 0 0 1 420 754 2
Fore
SplineSet
129 628 m 256
 129 575 172 533 225 533 c 256
 278 533 320 575 320 628 c 256
 320 681 278 723 225 723 c 256
 172 723 129 681 129 628 c 256
78 628 m 256
 78 709 144 775 225 775 c 256
 306 775 371 709 371 628 c 256
 371 547 306 482 225 482 c 256
 144 482 78 547 78 628 c 256
EndSplineSet
EndChar

StartChar: padalawa
Encoding: 43 -1 43
GlifName: padalawa
Width: 444
VWidth: 0
GlyphClass: 2
Flags: HMW
LayerCount: 2
Back
Refer: 22 5907 N 1 0 0 1 420 606 2
Refer: 22 5907 N 1 0 0 1 420 1008 2
Fore
SplineSet
77 809 m 256
 77 890 143 956 224 956 c 256
 305 956 371 890 371 809 c 256
 371 728 305 663 224 663 c 256
 143 663 77 728 77 809 c 256
77 407 m 256
 77 488 143 554 224 554 c 256
 305 554 371 488 371 407 c 256
 371 326 305 261 224 261 c 256
 143 261 77 326 77 407 c 256
EndSplineSet
EndChar

StartChar: padalawa_hollow
Encoding: 44 -1 44
GlifName: padalawa_hollow
Width: 444
VWidth: 0
GlyphClass: 2
Flags: HMW
LayerCount: 2
Back
Refer: 22 5907 N 1 0 0 1 420 606 2
Refer: 34 -1 N 1 0 0 1 420 934 2
Fore
SplineSet
129 808 m 256
 129 755 172 713 225 713 c 256
 278 713 320 755 320 808 c 256
 320 861 278 903 225 903 c 256
 172 903 129 861 129 808 c 256
78 808 m 256
 78 889 144 955 225 955 c 256
 306 955 371 889 371 808 c 256
 371 727 306 662 225 662 c 256
 144 662 78 727 78 808 c 256
77 407 m 256
 77 488 143 554 224 554 c 256
 305 554 371 488 371 407 c 256
 371 326 305 261 224 261 c 256
 143 261 77 326 77 407 c 256
EndSplineSet
EndChar

StartChar: padalawa_hollow2
Encoding: 45 -1 45
GlifName: padalawa_hollow2
Width: 444
VWidth: 0
GlyphClass: 2
Flags: HMW
LayerCount: 2
Back
Refer: 22 5907 N 1 0 0 1 420 1008 2
Refer: 34 -1 N 1 0 0 1 420 534 2
Fore
SplineSet
129 408 m 256
 129 355 172 313 225 313 c 256
 278 313 320 355 320 408 c 256
 320 461 278 503 225 503 c 256
 172 503 129 461 129 408 c 256
78 408 m 256
 78 489 144 555 225 555 c 256
 306 555 371 489 371 408 c 256
 371 327 306 262 225 262 c 256
 144 262 78 327 78 408 c 256
77 809 m 256
 77 890 143 956 224 956 c 256
 305 956 371 890 371 809 c 256
 371 728 305 663 224 663 c 256
 143 663 77 728 77 809 c 256
EndSplineSet
EndChar

StartChar: padalawa_hollow_hollow
Encoding: 46 -1 46
GlifName: padalawa_hollow_hollow
Width: 444
VWidth: 0
GlyphClass: 2
Flags: HMW
LayerCount: 2
Back
Refer: 34 -1 N 1 0 0 1 420 534 2
Refer: 34 -1 N 1 0 0 1 420 934 2
Fore
SplineSet
129 808 m 256
 129 755 172 713 225 713 c 256
 278 713 320 755 320 808 c 256
 320 861 278 903 225 903 c 256
 172 903 129 861 129 808 c 256
78 808 m 256
 78 889 144 955 225 955 c 256
 306 955 371 889 371 808 c 256
 371 727 306 662 225 662 c 256
 144 662 78 727 78 808 c 256
129 408 m 256
 129 355 172 313 225 313 c 256
 278 313 320 355 320 408 c 256
 320 461 278 503 225 503 c 256
 172 503 129 461 129 408 c 256
78 408 m 256
 78 489 144 555 225 555 c 256
 306 555 371 489 371 408 c 256
 371 327 306 262 225 262 c 256
 144 262 78 327 78 408 c 256
EndSplineSet
EndChar
